<svg xmlns="http://www.w3.org/2000/svg" width="945" height="323" viewBox="0 0 945 323" fill="none"><path d="M442.31 225.7C437.03 225.7 431.99 224.95 427.17 223.46C422.35 221.97 417.94 219.74 413.93 216.75C409.92 213.77 406.42 210.13 403.44 205.83C400.77 201.98 398.61 197.56 396.95 192.56C396.62 191.56 397.15 190.48 398.13 190.09L416.2 182.98C417.27 182.56 418.48 183.13 418.83 184.23C420.49 189.51 423.11 193.96 426.67 197.57C430.68 201.64 435.96 203.68 442.49 203.68C444.9 203.68 447.22 203.37 449.46 202.73C451.7 202.1 453.7 201.18 455.48 199.98C457.26 198.78 458.66 197.26 459.69 195.42C460.72 193.59 461.24 191.46 461.24 189.06C461.24 186.66 460.84 184.7 460.04 182.87C459.24 181.04 457.89 179.32 456 177.71C454.11 176.11 451.64 174.56 448.6 173.07C445.56 171.58 441.81 170.03 437.33 168.43L429.76 165.68C426.43 164.54 423.08 162.99 419.7 161.04C416.32 159.09 413.25 156.74 410.5 153.99C407.75 151.24 405.48 148 403.71 144.27C401.93 140.55 401.04 136.33 401.04 131.63C401.04 126.93 401.99 122.32 403.88 118.13C405.77 113.95 408.46 110.28 411.96 107.12C415.46 103.97 419.64 101.5 424.52 99.72C429.39 97.94 434.81 97.05 440.77 97.05C446.73 97.05 452.32 97.88 456.85 99.54C461.38 101.2 465.22 103.32 468.37 105.9C471.52 108.48 474.07 111.32 476.02 114.41C477.54 116.82 478.74 119.13 479.64 121.34C480.05 122.35 479.56 123.51 478.55 123.93L461.73 130.99C460.72 131.41 459.58 130.94 459.13 129.95C457.91 127.23 456.06 124.75 453.57 122.49C450.53 119.74 446.37 118.36 441.1 118.36C435.83 118.36 431.87 119.54 428.54 121.89C425.21 124.24 423.55 127.31 423.55 131.09C423.55 134.87 425.15 137.88 428.37 140.46C431.58 143.04 436.68 145.53 443.68 147.94L451.42 150.52C456.35 152.24 460.85 154.22 464.92 156.45C468.99 158.69 472.49 161.35 475.41 164.45C478.33 167.55 480.57 171.07 482.12 175.03C483.67 178.99 484.44 183.54 484.44 188.7C484.44 195.12 483.15 200.65 480.57 205.3C477.99 209.94 474.69 213.76 470.68 216.74C466.67 219.72 462.14 221.96 457.09 223.45C452.04 224.94 447.11 225.69 442.3 225.69L442.31 225.7Z" fill="#212529"></path><path d="M540.69 135.92C547.23 135.92 553.22 137.04 558.66 139.27C564.11 141.51 568.81 144.6 572.76 148.56C576.71 152.52 579.81 157.25 582.05 162.75C584.29 168.25 585.4 174.27 585.4 180.81C585.4 187.35 584.28 193.37 582.05 198.87C579.81 204.37 576.72 209.1 572.76 213.06C568.8 217.02 564.1 220.11 558.66 222.35C553.21 224.59 547.22 225.7 540.69 225.7C534.16 225.7 528.16 224.58 522.72 222.35C517.27 220.11 512.57 217.02 508.62 213.06C504.67 209.1 501.57 204.37 499.33 198.87C497.09 193.37 495.98 187.35 495.98 180.81C495.98 174.27 497.1 168.25 499.33 162.75C501.56 157.25 504.66 152.52 508.62 148.56C512.58 144.6 517.28 141.51 522.72 139.27C528.17 137.03 534.16 135.92 540.69 135.92ZM540.69 204.89C543.55 204.89 546.34 204.35 549.03 203.26C551.72 202.17 554.1 200.59 556.17 198.53C558.24 196.47 559.87 193.95 561.07 190.96C562.27 187.98 562.88 184.6 562.88 180.81C562.88 177.02 562.28 173.64 561.07 170.66C559.87 167.68 558.23 165.16 556.17 163.09C554.11 161.02 551.73 159.45 549.03 158.36C546.33 157.27 543.55 156.73 540.69 156.73C537.83 156.73 534.9 157.27 532.26 158.36C529.62 159.45 527.27 161.03 525.21 163.09C523.15 165.15 521.51 167.68 520.31 170.66C519.11 173.64 518.5 177.02 518.5 180.81C518.5 184.6 519.1 187.98 520.31 190.96C521.51 193.94 523.15 196.46 525.21 198.53C527.27 200.59 529.62 202.17 532.26 203.26C534.9 204.35 537.7 204.89 540.69 204.89Z" fill="#212529"></path><path d="M657.31 211.94H657.01C656.34 211.94 655.72 212.29 655.34 212.85C652.77 216.67 649.41 219.72 645.26 222C640.79 224.46 635.68 225.7 629.95 225.7C619.29 225.7 611.34 222.43 606.13 215.9C600.91 209.36 598.3 200.65 598.3 189.76V140.68C598.3 139.58 599.2 138.68 600.3 138.68H618.83C619.93 138.68 620.83 139.58 620.83 140.68V187.01C620.83 193.09 622.18 197.59 624.87 200.51C627.56 203.43 631.49 204.9 636.65 204.9C639.75 204.9 642.47 204.24 644.82 202.92C647.17 201.6 649.18 199.82 650.84 197.59C652.5 195.35 653.76 192.72 654.62 189.68C655.48 186.64 655.91 183.4 655.91 179.96V140.68C655.91 139.58 656.81 138.68 657.91 138.68H676.44C677.54 138.68 678.44 139.58 678.44 140.68V220.96C678.44 222.06 677.54 222.96 676.44 222.96H659.28C658.18 222.96 657.28 222.06 657.28 220.96V211.95L657.31 211.94Z" fill="#212529"></path><path d="M718.88 149.68H719.18C719.85 149.68 720.47 149.33 720.85 148.77C723.42 144.96 726.78 141.9 730.93 139.62C735.4 137.16 740.5 135.92 746.24 135.92C751.51 135.92 756.16 136.78 760.17 138.5C764.18 140.22 767.48 142.66 770.06 145.81C772.64 148.96 774.59 152.75 775.91 157.16C777.23 161.58 777.89 166.48 777.89 171.87V220.95C777.89 222.05 776.99 222.95 775.89 222.95H757.36C756.26 222.95 755.36 222.05 755.36 220.95V174.62C755.36 168.54 754.01 164.04 751.32 161.12C748.62 158.2 744.7 156.73 739.54 156.73C736.44 156.73 733.72 157.39 731.37 158.71C729.02 160.03 727.01 161.81 725.35 164.04C723.69 166.28 722.43 168.92 721.57 171.95C720.71 174.99 720.28 178.23 720.28 181.67V220.95C720.28 222.05 719.38 222.95 718.28 222.95H699.75C698.65 222.95 697.75 222.05 697.75 220.95V140.67C697.75 139.57 698.65 138.67 699.75 138.67H716.91C718.01 138.67 718.91 139.57 718.91 140.67V149.68H718.88Z" fill="#212529"></path><path d="M874.32 201.69C875.39 202.22 875.75 203.56 875.11 204.57C871.35 210.57 866.48 215.49 860.52 219.33C853.92 223.57 845.87 225.69 836.35 225.69C829.93 225.69 823.99 224.57 818.55 222.34C813.1 220.1 808.37 216.98 804.36 212.97C800.35 208.96 797.22 204.23 794.99 198.78C792.75 193.33 791.64 187.34 791.64 180.81C791.64 174.73 792.73 168.97 794.91 163.52C797.09 158.07 800.13 153.31 804.03 149.24C807.93 145.17 812.54 141.93 817.88 139.52C823.22 137.11 829.09 135.91 835.51 135.91C842.27 135.91 848.29 137.03 853.57 139.26C858.84 141.5 863.26 144.59 866.81 148.55C870.36 152.51 873.06 157.18 874.89 162.57C876.72 167.96 877.64 173.81 877.64 180.11V182.03C877.64 182.13 877.64 182.22 877.62 182.32C877.52 182.95 877.47 183.53 877.47 184.07C877.46 184.14 877.44 184.21 877.43 184.28C877.26 185.25 876.44 185.97 875.46 185.97H816.21C814.95 185.97 813.98 187.13 814.25 188.36C814.78 190.8 815.58 192.96 816.68 194.83C818.11 197.3 819.89 199.36 822.01 201.02C824.13 202.68 826.45 203.89 828.98 204.63C831.5 205.38 834.08 205.75 836.72 205.75C841.88 205.75 846.15 204.58 849.53 202.22C852.42 200.21 854.78 197.77 856.62 194.88C857.17 194.03 858.27 193.73 859.18 194.18L874.33 201.69H874.32ZM853.36 169.97C854.72 169.97 855.67 168.65 855.27 167.36C855.03 166.6 854.72 165.81 854.34 164.99C853.48 163.16 852.22 161.44 850.56 159.83C848.9 158.23 846.83 156.91 844.37 155.87C841.9 154.84 838.95 154.32 835.51 154.32C830.69 154.32 826.45 155.7 822.78 158.45C819.84 160.66 817.59 163.56 816.05 167.17C815.48 168.49 816.45 169.97 817.89 169.97H853.36Z" fill="#212529"></path><path d="M896.79 157.94H886C884.9 157.94 884 157.04 884 155.94V140.68C884 139.58 884.9 138.68 886 138.68H896.79C897.89 138.68 898.79 137.78 898.79 136.68V114.88C898.79 113.78 899.69 112.88 900.79 112.88H919.32C920.42 112.88 921.32 113.78 921.32 114.88V136.68C921.32 137.78 922.22 138.68 923.32 138.68H939.96C941.06 138.68 941.96 139.58 941.96 140.68V155.94C941.96 157.04 941.06 157.94 939.96 157.94H923.32C922.22 157.94 921.32 158.84 921.32 159.94V191.62C921.32 193.63 921.52 195.49 921.92 197.2C922.32 198.91 923.09 200.36 924.24 201.54C925.84 203.43 928.14 204.37 931.12 204.37C933.07 204.37 934.62 204.17 935.76 203.77C936.19 203.62 936.62 203.45 937.03 203.25C938.12 202.75 939.4 203.3 939.77 204.45L944.84 220.2C945.16 221.2 944.66 222.27 943.69 222.67C941.54 223.56 939.27 224.25 936.88 224.75C933.84 225.38 930.49 225.7 926.82 225.7C922.58 225.7 918.76 225.03 915.38 223.68C912 222.33 909.16 220.49 906.87 218.15C901.48 212.88 898.79 205.39 898.79 195.68V159.93C898.79 158.83 897.89 157.93 896.79 157.93V157.94Z" fill="#212529"></path><g opacity="0.5"><path d="M232.75 275.44C232.48 276.56 232.18 277.68 231.87 278.78C228.1 292.19 221.63 304.16 213.19 314.25C208.63 315.8 203.98 317.14 199.25 318.28H199.24C187.09 321.2 174.42 322.75 161.37 322.75C150.87 322.75 140.6 321.75 130.66 319.83C125.86 318.91 121.14 317.77 116.5 316.43C93.7698 309.86 73.0998 298.43 55.6898 283.34H55.6798C52.2798 280.38 49.0198 277.3 45.8698 274.07C42.8798 261.05 42.5898 247.22 45.4598 233.36C45.6798 232.24 45.9398 231.11 46.2098 229.99C49.8598 215.01 56.8298 201.72 66.1598 190.71C75.9798 179.12 88.3898 170.06 102.28 164.21C112.92 159.73 124.42 157.13 136.27 156.75C141.3 156.58 146.4 156.81 151.52 157.46C153.19 157.67 154.86 157.93 156.53 158.24C157.3 158.37 158.07 158.52 158.84 158.69C159.31 158.78 159.78 158.88 160.25 158.99C160.6 159.06 160.96 159.14 161.31 159.23C161.61 159.3 161.91 159.37 162.21 159.44C162.51 159.51 162.8 159.59 163.1 159.67C163.45 159.75 163.81 159.84 164.16 159.93C164.62 160.06 165.08 160.19 165.54 160.32C166.3 160.53 167.05 160.75 167.79 160.98C169.42 161.48 171.02 162.02 172.6 162.6H172.61C177.45 164.37 182.08 166.51 186.46 168.97C196.81 174.77 205.83 182.36 213.22 191.24C222.86 202.82 229.72 216.58 233.1 231.39C236.32 245.46 236.4 260.47 232.75 275.44Z" fill="#07B151"></path></g><g opacity="0.5"><path d="M189.22 258.07C184.98 271.86 177.54 284.9 166.9 296.05C166.1 296.89 165.28 297.71 164.46 298.5C154.52 308.21 142.97 315.32 130.66 319.83C125.86 318.91 121.14 317.77 116.5 316.43C93.7701 309.86 73.1001 298.43 55.6901 283.34H55.6801C52.2801 280.38 49.0201 277.3 45.8701 274.07C29.3001 257.09 16.4401 236.46 8.6101 213.51C7.4001 209.96 6.3101 206.36 5.3501 202.71C9.2201 189.47 16.0101 176.88 25.7401 165.95C26.4901 165.09 27.2701 164.25 28.0701 163.41C38.7201 152.27 51.4101 144.25 64.9901 139.38C79.2901 134.25 94.5801 132.6 109.53 134.49C120.98 135.92 132.23 139.42 142.68 145.01C142.69 145.01 142.69 145.02 142.69 145.02C147.14 147.39 151.44 150.14 155.54 153.27C156.88 154.28 158.2 155.34 159.49 156.45C160.09 156.95 160.68 157.46 161.26 157.99C161.62 158.29 161.97 158.61 162.32 158.94C162.58 159.18 162.85 159.42 163.1 159.67C163.34 159.88 163.57 160.1 163.8 160.32C164.03 160.54 164.25 160.76 164.48 160.99C164.74 161.22 164.99 161.47 165.24 161.74C165.58 162.07 165.93 162.41 166.25 162.76C166.81 163.32 167.34 163.88 167.87 164.45C169.03 165.69 170.14 166.96 171.21 168.25C174.53 172.21 177.48 176.38 180.04 180.71C186.11 190.9 190.13 201.98 192.08 213.36C194.64 228.21 193.7 243.55 189.22 258.07Z" fill="#2FBBB3"></path></g><g opacity="0.5"><path d="M168.63 187.67C168.78 199.52 166.71 211.13 162.72 221.96C157.51 236.09 149.02 248.91 137.89 259.24C127.32 269.06 114.36 276.64 99.57 280.97C98.46 281.29 97.35 281.6 96.23 281.88C82.56 285.36 68.79 285.7 55.69 283.34H55.68C52.28 280.38 49.02 277.3 45.87 274.07C29.3 257.09 16.44 236.46 8.61 213.51C7.4 209.96 6.31 206.36 5.35 202.71C1.86 189.51 0 175.66 0 161.37C0 150.24 1.13 139.38 3.27 128.89C3.85 126.04 4.51 123.22 5.24 120.43C15.41 110.39 27.96 102.49 42.36 97.7201C43.45 97.3601 44.55 97.0101 45.66 96.6901C60.45 92.3701 75.45 91.7601 89.64 94.3401C104.6 97.0401 118.66 103.27 130.67 112.38C139.87 119.35 147.86 128.01 154.12 138.07C156.78 142.35 159.13 146.88 161.11 151.64C161.77 153.19 162.38 154.77 162.96 156.37C163.22 157.1 163.47 157.84 163.72 158.58C163.87 159.03 164.01 159.48 164.16 159.93C164.27 160.29 164.38 160.64 164.48 160.99C164.57 161.28 164.66 161.58 164.75 161.88C164.84 162.18 164.93 162.49 165.01 162.79C165.11 163.13 165.2 163.47 165.3 163.82C165.42 164.28 165.54 164.74 165.66 165.21C165.85 165.96 166.04 166.72 166.21 167.48C166.59 169.14 166.92 170.8 167.21 172.46C168.1 177.55 168.57 182.63 168.63 187.67Z" fill="#2357BC"></path></g><g opacity="0.5"><path d="M166.76 153.02C166.56 154.69 166.3 156.36 165.99 158.03C165.86 158.79 165.71 159.55 165.54 160.32C165.45 160.79 165.35 161.27 165.24 161.74C165.17 162.09 165.09 162.44 165.01 162.79C164.94 163.09 164.86 163.4 164.79 163.7C164.72 164.01 164.64 164.31 164.56 164.62C164.47 164.96 164.39 165.31 164.3 165.65H164.29C164.17 166.11 164.05 166.57 163.91 167.03C163.7 167.79 163.48 168.54 163.25 169.28C162.75 170.91 162.21 172.51 161.63 174.09C159.86 178.94 157.72 183.58 155.26 187.97C149.46 198.31 141.87 207.33 133 214.71C121.42 224.35 107.65 231.21 92.84 234.59C78.77 237.81 63.76 237.89 48.79 234.24C47.67 233.97 46.56 233.68 45.46 233.36C31.43 229.42 18.98 222.52 8.61 213.51C7.4 209.96 6.31 206.36 5.35 202.71C1.86 189.51 0 175.66 0 161.37C0 150.24 1.13 139.38 3.27 128.89C3.85 126.04 4.51 123.22 5.24 120.43C11.89 94.99 24.59 72 41.72 53.09C43.17 51.49 44.66 49.91 46.18 48.37C60.34 44.47 75.59 43.78 90.88 46.95C92 47.17 93.13 47.43 94.25 47.7C109.22 51.35 122.51 58.32 133.52 67.66C145.12 77.47 154.18 89.9 160.03 103.79C164.51 114.44 167.1 125.93 167.48 137.77C167.65 142.8 167.42 147.9 166.76 153.02Z" fill="#4C489B"></path></g><g opacity="0.5"><path d="M189.75 111.01C188.32 122.47 184.81 133.73 179.22 144.19C176.85 148.63 174.1 152.92 170.97 157.03C169.96 158.37 168.9 159.68 167.79 160.98C167.3 161.58 166.78 162.17 166.25 162.76C165.94 163.12 165.62 163.47 165.3 163.82C165.06 164.09 164.81 164.36 164.56 164.62C164.35 164.85 164.13 165.08 163.92 165.3C163.71 165.52 163.49 165.75 163.26 165.97C163.02 166.23 162.77 166.49 162.51 166.74C162.17 167.08 161.83 167.43 161.48 167.75C160.92 168.31 160.36 168.84 159.79 169.37C158.54 170.53 157.27 171.65 155.97 172.72C152.02 176.04 147.85 178.98 143.52 181.55C133.33 187.61 122.26 191.62 110.88 193.57H110.87C96.02 196.14 80.67 195.19 66.16 190.71C52.37 186.47 39.33 179.04 28.19 168.39C27.35 167.59 26.53 166.77 25.74 165.95C15.18 155.14 7.68002 142.41 3.27002 128.89C3.85002 126.04 4.51002 123.22 5.24002 120.43C11.89 94.9899 24.59 71.9999 41.72 53.0899C43.17 51.4899 44.66 49.9099 46.18 48.3699C64.59 29.5899 87.56 15.3099 113.28 7.27989C114.85 6.79989 116.43 6.32989 118.02 5.88989C132.54 9.53989 146.39 16.6399 158.28 27.2399C159.14 27.9899 159.98 28.7699 160.82 29.5699C171.96 40.2199 179.99 52.9099 184.86 66.4899C189.99 80.7799 191.63 96.0599 189.75 111.01Z" fill="#733B97"></path></g><g opacity="0.5"><path d="M229.9 91.14C227.19 106.09 220.97 120.16 211.86 132.16C204.89 141.36 196.23 149.35 186.17 155.61C181.9 158.27 177.37 160.62 172.61 162.6H172.6C171.05 163.26 169.48 163.87 167.87 164.45C167.14 164.71 166.4 164.97 165.66 165.21C165.21 165.36 164.76 165.51 164.3 165.65H164.29C163.95 165.76 163.61 165.87 163.26 165.97C162.96 166.06 162.66 166.15 162.36 166.24C162.06 166.33 161.75 166.42 161.45 166.5C161.11 166.6 160.77 166.69 160.42 166.79C159.96 166.91 159.49 167.03 159.02 167.15C158.27 167.34 157.51 167.53 156.75 167.7C155.09 168.08 153.44 168.41 151.78 168.7C146.69 169.59 141.62 170.06 136.58 170.12H136.57C124.72 170.27 113.11 168.21 102.28 164.21C88.1402 159.01 75.3202 150.51 64.9902 139.38C55.1702 128.81 47.6002 115.85 43.2702 101.06C42.9502 99.95 42.6402 98.84 42.3602 97.72C38.5102 82.63 38.5002 67.4 41.7202 53.09C43.1702 51.49 44.6602 49.91 46.1802 48.37C64.5902 29.59 87.5602 15.31 113.28 7.28C114.85 6.8 116.43 6.33 118.02 5.89C131.82 2.05 146.35 0 161.37 0C173.81 0 185.93 1.41 197.56 4.07C199.16 4.44 200.75 4.83 202.32 5.24C213.07 15.66 221.51 28.74 226.52 43.85C226.88 44.94 227.23 46.04 227.55 47.15C231.88 61.94 232.48 76.94 229.9 91.14Z" fill="#AF3A94"></path></g><g opacity="0.5"><path d="M277.29 92.37C277.07 93.49 276.81 94.62 276.54 95.74C272.89 110.72 265.91 124.01 256.58 135.02C246.76 146.61 234.34 155.67 220.46 161.51H220.45C209.81 166 198.31 168.59 186.46 168.97C181.43 169.15 176.33 168.91 171.21 168.25C169.54 168.04 167.88 167.79 166.21 167.48C165.44 167.34 164.68 167.2 163.91 167.03C163.45 166.94 162.98 166.84 162.51 166.74C162.16 166.66 161.81 166.58 161.45 166.5C161.15 166.43 160.84 166.35 160.54 166.28C160.23 166.21 159.93 166.13 159.62 166.05C159.27 165.96 158.92 165.87 158.57 165.78C158.11 165.66 157.65 165.53 157.2 165.4C156.45 165.19 155.7 164.97 154.96 164.74C153.33 164.24 151.73 163.7 150.15 163.12C145.3 161.35 140.66 159.21 136.27 156.75C125.93 150.95 116.91 143.36 109.53 134.49C99.88 122.91 93.03 109.15 89.64 94.34C86.42 80.27 86.34 65.26 89.99 50.29C90.26 49.17 90.56 48.05 90.88 46.95C95.18 31.63 103.02 18.18 113.28 7.28C114.85 6.8 116.43 6.33 118.02 5.89C131.82 2.05 146.35 0 161.37 0C173.81 0 185.93 1.41 197.56 4.07C199.16 4.44 200.75 4.83 202.32 5.24C228.5 12.09 252.09 25.34 271.3 43.24C271.3 43.24 271.31 43.24 271.31 43.25C272.86 44.69 274.39 46.16 275.87 47.67C279.77 61.84 280.45 77.08 277.29 92.37Z" fill="#D52127"></path></g><g opacity="0.5"><path d="M317.8 121.57C314.02 135.34 307.09 148.45 297.01 159.78C296.25 160.64 295.47 161.48 294.67 162.32C284.02 173.46 271.33 181.49 257.75 186.35C243.45 191.48 228.16 193.13 213.22 191.24C201.76 189.81 190.5 186.3 180.04 180.71C175.61 178.34 171.31 175.59 167.21 172.46C165.87 171.45 164.55 170.39 163.25 169.28C162.66 168.79 162.07 168.27 161.48 167.75C161.12 167.44 160.77 167.12 160.42 166.79C160.15 166.55 159.88 166.3 159.62 166.05C159.39 165.84 159.16 165.62 158.94 165.41C158.71 165.19 158.49 164.97 158.26 164.74C158 164.51 157.75 164.26 157.5 163.99C157.16 163.66 156.81 163.32 156.49 162.97C155.93 162.41 155.4 161.85 154.87 161.28C153.71 160.03 152.59 158.76 151.52 157.46C148.2 153.51 145.26 149.35 142.69 145.02C142.69 145.02 142.69 145.01 142.68 145.01C136.64 134.83 132.62 123.75 130.67 112.38C128.1 97.5301 129.04 82.1801 133.52 67.6601C137.76 53.8701 145.2 40.8301 155.85 29.6801C156.65 28.8401 157.46 28.0301 158.28 27.2401C169.68 16.1001 183.21 8.37007 197.56 4.07007C199.16 4.44007 200.75 4.83007 202.32 5.24007C228.5 12.0901 252.09 25.3401 271.3 43.2401C271.3 43.2401 271.31 43.2401 271.31 43.2501C272.86 44.6901 274.39 46.1601 275.87 47.6701C293.95 65.8601 307.72 88.3401 315.52 113.45C316.35 116.13 317.11 118.84 317.8 121.57Z" fill="#F36621"></path></g><g opacity="0.5"><path d="M322.75 161.37C322.75 173.15 321.49 184.63 319.09 195.69C318.31 199.31 317.4 202.88 316.38 206.4C306.42 215.92 294.26 223.41 280.39 228.01C279.3 228.37 278.2 228.71 277.09 229.04C262.3 233.37 247.3 233.97 233.1 231.39C218.15 228.68 204.09 222.46 192.08 213.36C182.88 206.39 174.89 197.73 168.63 187.67C165.97 183.39 163.61 178.86 161.63 174.09C160.97 172.54 160.36 170.97 159.79 169.37C159.52 168.64 159.27 167.9 159.02 167.15C158.87 166.7 158.72 166.24 158.57 165.78C158.47 165.44 158.36 165.09 158.26 164.74C158.17 164.45 158.08 164.15 157.99 163.85C157.9 163.55 157.81 163.25 157.73 162.95C157.63 162.6 157.54 162.26 157.45 161.92C157.45 161.92 157.45 161.917 157.45 161.91C157.32 161.44 157.2 160.98 157.08 160.52C156.89 159.76 156.7 159 156.53 158.24C156.15 156.58 155.82 154.94 155.54 153.28C154.64 148.19 154.18 143.11 154.12 138.07C153.96 126.22 156.03 114.63 160.03 103.8C165.23 89.6499 173.72 76.8199 184.86 66.4899C195.43 56.6599 208.39 49.0899 223.18 44.7599C224.29 44.4399 225.4 44.1299 226.52 43.8499C241.67 39.9899 256.95 39.9899 271.3 43.2399C271.3 43.2399 271.31 43.2399 271.31 43.2499C272.86 44.6899 274.39 46.1599 275.87 47.6699C293.95 65.8599 307.72 88.3399 315.52 113.45C316.35 116.13 317.11 118.84 317.8 121.57C321.03 134.3 322.75 147.64 322.75 161.37Z" fill="#F6851E"></path></g><g opacity="0.5"><path d="M322.75 161.37C322.75 173.15 321.49 184.63 319.09 195.69C318.31 199.31 317.4 202.88 316.38 206.4C309.59 229.83 297.63 251.06 281.81 268.78H281.8C278.84 272.12 275.74 275.32 272.5 278.39C259.51 281.36 245.71 281.64 231.87 278.78C230.75 278.56 229.62 278.3 228.5 278.03C213.52 274.38 200.23 267.4 189.22 258.07C177.63 248.26 168.57 235.84 162.72 221.96C158.24 211.32 155.64 199.82 155.26 187.97C155.08 182.94 155.32 177.84 155.97 172.72C156.18 171.05 156.44 169.38 156.75 167.7C156.88 166.94 157.03 166.17 157.2 165.4C157.29 164.93 157.39 164.46 157.5 163.99C157.57 163.64 157.65 163.3 157.73 162.95C157.8 162.64 157.88 162.33 157.95 162.03C158.02 161.73 158.1 161.43 158.18 161.13C158.26 160.78 158.35 160.43 158.45 160.08C158.57 159.62 158.7 159.15 158.84 158.69C159.04 157.94 159.26 157.19 159.49 156.45C159.99 154.82 160.53 153.22 161.11 151.64C162.88 146.79 165.02 142.16 167.48 137.77C173.28 127.42 180.87 118.4 189.75 111.01C201.33 101.38 215.09 94.52 229.9 91.14C243.97 87.92 258.98 87.84 273.95 91.49C275.07 91.76 276.19 92.06 277.29 92.37C291.94 96.49 304.88 103.84 315.52 113.45C316.35 116.13 317.11 118.84 317.8 121.57C321.03 134.3 322.75 147.64 322.75 161.37Z" fill="#FBB40F"></path></g><g opacity="0.5"><path d="M319.09 195.69C318.31 199.31 317.4 202.88 316.38 206.4C309.59 229.83 297.63 251.06 281.81 268.78H281.8C278.84 272.12 275.74 275.32 272.5 278.39C255.74 294.31 235.57 306.67 213.19 314.25C208.63 315.8 203.98 317.14 199.25 318.28H199.24C186.73 314.34 174.85 307.75 164.46 298.5C163.6 297.74 162.76 296.96 161.92 296.16C150.78 285.51 142.75 272.82 137.89 259.24C132.76 244.95 131.11 229.66 133 214.71C134.43 203.26 137.93 192 143.52 181.55C145.89 177.11 148.64 172.81 151.78 168.7C152.79 167.36 153.85 166.04 154.96 164.74C155.45 164.15 155.97 163.56 156.49 162.97C156.8 162.62 157.12 162.27 157.45 161.92C157.45 161.92 157.45 161.917 157.45 161.91C157.69 161.65 157.93 161.39 158.18 161.13C158.39 160.89 158.61 160.66 158.83 160.43C159.04 160.21 159.26 159.98 159.49 159.76C159.73 159.5 159.98 159.24 160.25 158.99C160.57 158.65 160.92 158.31 161.26 157.99C161.82 157.43 162.39 156.89 162.96 156.37C164.2 155.21 165.47 154.09 166.76 153.02C170.72 149.7 174.89 146.76 179.22 144.19C189.4 138.13 200.48 134.11 211.86 132.16C226.71 129.59 242.06 130.53 256.58 135.02C270.37 139.25 283.41 146.69 294.56 157.34C295.4 158.14 296.22 158.96 297.01 159.78C307.27 170.29 314.63 182.59 319.09 195.69Z" fill="#FCED23"></path></g><g opacity="0.5"><path d="M281.81 268.78H281.8C278.84 272.12 275.74 275.32 272.5 278.39C255.74 294.31 235.57 306.67 213.19 314.25C208.63 315.8 203.98 317.14 199.25 318.28H199.24C187.09 321.2 174.42 322.75 161.37 322.75C150.87 322.75 140.6 321.75 130.66 319.83C125.86 318.91 121.14 317.77 116.5 316.43C107.61 306.74 100.61 295.09 96.2302 281.88C95.8702 280.79 95.5302 279.69 95.2002 278.58C90.8702 263.79 90.2702 248.79 92.8402 234.59C95.5402 219.64 101.77 205.57 110.87 193.57H110.88C117.85 184.37 126.51 176.38 136.57 170.12H136.58C140.86 167.45 145.39 165.11 150.15 163.12C151.7 162.47 153.27 161.85 154.87 161.28C155.6 161.02 156.33 160.77 157.08 160.52C157.53 160.37 157.99 160.22 158.45 160.08C158.79 159.97 159.14 159.86 159.49 159.76C159.78 159.67 160.08 159.58 160.38 159.49C160.69 159.4 161 159.31 161.31 159.23C161.65 159.13 161.98 159.04 162.32 158.94C162.78 158.82 163.25 158.7 163.72 158.58C164.48 158.39 165.23 158.2 165.99 158.03C167.65 157.65 169.31 157.31 170.97 157.03C176.05 156.14 181.14 155.67 186.17 155.61C198.02 155.46 209.62 157.52 220.45 161.51H220.46C234.6 166.72 247.43 175.21 257.75 186.35C267.58 196.92 275.15 209.88 279.48 224.67C279.8 225.78 280.11 226.89 280.39 228.01C283.89 241.75 284.22 255.61 281.81 268.78Z" fill="#8CC640"></path></g><path d="M94.5599 264.45L102.8 209.89C102.98 208.68 102.05 207.59 100.82 207.59H69.7699C68.5299 207.59 67.59 206.48 67.8 205.26L72.37 177.83C72.53 176.87 73.3699 176.16 74.3399 176.16H106.03C107.03 176.16 107.87 175.43 108.01 174.44L112.06 146.09C112.23 144.89 111.3 143.81 110.08 143.81H78.98C77.75 143.81 76.8099 142.71 76.9999 141.5L81.3 114.07C81.45 113.1 82.2899 112.38 83.2799 112.38H115.28C116.27 112.38 117.11 111.66 117.26 110.68L125.37 57.69C125.52 56.71 126.36 55.99 127.35 55.99H157.5C158.73 55.99 159.66 57.08 159.48 58.29L151.56 110.07C151.37 111.28 152.31 112.37 153.54 112.37H184C184.99 112.37 185.83 111.65 185.98 110.67L194.09 57.68C194.24 56.7 195.08 55.98 196.07 55.98H225.93C227.15 55.98 228.09 57.06 227.91 58.27L220.27 110.07C220.09 111.28 221.03 112.36 222.25 112.36H253.03C254.26 112.36 255.2 113.46 255.01 114.67L250.71 142.1C250.56 143.07 249.72 143.79 248.73 143.79H217.04C216.05 143.79 215.21 144.51 215.06 145.49L210.74 173.84C210.56 175.05 211.49 176.14 212.72 176.14H244.1C245.33 176.14 246.27 177.24 246.08 178.45L241.78 205.88C241.63 206.85 240.79 207.57 239.8 207.57H207.49C206.5 207.57 205.66 208.29 205.51 209.27L197.09 265.02C196.94 266 196.1 266.72 195.11 266.72H165.25C164.03 266.72 163.09 265.64 163.27 264.43L171.23 209.85C171.41 208.64 170.47 207.56 169.25 207.56H138.79C137.8 207.56 136.95 208.29 136.81 209.27L128.68 265C128.54 265.98 127.69 266.71 126.7 266.71H96.5599C95.3399 266.71 94.4 265.62 94.58 264.41L94.5599 264.45ZM143.38 176.78H175.07C176.06 176.78 176.89 176.06 177.05 175.09L181.66 145.51C181.85 144.3 180.91 143.2 179.68 143.2H147.99C147 143.2 146.17 143.92 146.01 144.89L141.4 174.47C141.21 175.68 142.15 176.78 143.38 176.78Z" fill="white"></path></svg>