<svg width="16" height="17" viewBox="0 0 16 17" fill="none" xmlns="http://www.w3.org/2000/svg">
<g clip-path="url(#clip0_2604_22168)">
<path d="M8 16.5C12.4183 16.5 16 12.9183 16 8.5C16 4.08172 12.4183 0.5 8 0.5C3.58172 0.5 0 4.08172 0 8.5C0 12.9183 3.58172 16.5 8 16.5Z" fill="#27D045"/>
<path d="M8.06784 12.2997C10.2033 12.2997 11.9345 10.5686 11.9345 8.43307C11.9345 6.29757 10.2033 4.56641 8.06784 4.56641C5.93234 4.56641 4.20117 6.29757 4.20117 8.43307C4.20117 10.5686 5.93234 12.2997 8.06784 12.2997Z" stroke="white" stroke-width="0.860758"/>
<path d="M4.53325 10.6332L3.91992 12.8066L6.17326 12.1799L6.29325 11.4866L4.82658 11.9532L5.21325 10.5532L4.53325 10.6332Z" fill="white"/>
<path d="M4.80078 11.9667C4.80078 11.9534 5.26745 10.4067 5.26745 10.4067L6.38745 11.4601L4.80078 11.9667Z" fill="#27D045"/>
<path d="M6.39633 6.51783C6.26019 6.61229 6.14413 6.73282 6.05487 6.87242C5.96562 7.01203 5.90493 7.16795 5.87632 7.33116C5.80966 7.85116 6.12966 8.3845 6.12966 8.3845C6.45426 8.86743 6.83964 9.30659 7.27632 9.69116C7.65832 9.99343 8.09201 10.2238 8.55632 10.3712C8.82716 10.4793 9.12344 10.5071 9.40966 10.4512C9.66335 10.3815 9.88779 10.2319 10.0496 10.0245C10.0876 9.93014 10.1144 9.83171 10.1297 9.73116C10.1449 9.64293 10.1449 9.55273 10.1297 9.4645C10.1163 9.37116 9.15633 8.93116 9.06299 8.95783C8.96966 8.9845 8.88965 9.15783 8.78298 9.3045C8.67631 9.45116 8.63633 9.51783 8.52966 9.51783C8.42299 9.51783 7.95631 9.33116 7.51631 8.93116C7.265 8.71325 7.06859 8.43917 6.94299 8.13116C6.94299 8.13116 7.02299 8.03783 7.12966 7.89116C7.21266 7.80022 7.27216 7.69036 7.30298 7.57116C7.30298 7.5045 6.92965 6.55783 6.83632 6.51783C6.69037 6.49731 6.54228 6.49731 6.39633 6.51783Z" fill="white"/>
</g>
<defs>
<clipPath id="clip0_2604_22168">
<rect width="16" height="16" fill="white" transform="translate(0 0.5)"/>
</clipPath>
</defs>
</svg>
